<svg xmlns="http://www.w3.org/2000/svg" viewBox="0 0 48 64" fill="none">
  <!-- House (nest) -->
  <path d="M5 46 L15 37.5 L25 46 V56 H5 Z" fill="#02BBCB"/>
  <path d="M5 46 L15 37.5 L25 46 Z" fill="#35CBD7"/>
  <rect x="9.2" y="47.8" width="2.8" height="2.8" rx="0.3" fill="#FFFFFF"/>
  <rect x="13" y="47.8" width="2.8" height="2.8" rx="0.3" fill="#FFFFFF"/>
  <rect x="9.2" y="51.4" width="2.8" height="2.8" rx="0.3" fill="#FFFFFF"/>
  <rect x="13" y="51.4" width="2.8" height="2.8" rx="0.3" fill="#FFFFFF"/>
  <!-- Dotted travel path forming N -->
  <path
    d="M15 37.5 V12 L33 50 V14"
    stroke="#02BBCB"
    stroke-width="3"
    stroke-linecap="round"
    stroke-linejoin="round"
    stroke-dasharray="1.6 4.6"
  />
  <!-- Destination pin with heart -->
  <path
    d="M27.2 4.8 C27.2 2 29.4 0 32 0 C34.6 0 36.8 2 36.8 4.8 C36.8 8.8 32 14.2 32 14.2 C32 14.2 27.2 8.8 27.2 4.8 Z"
    fill="#FF5757"
  />
  <path
    d="M32 3.2 C31.2 2.5 30.2 3.1 30.2 4.1 C30.2 4.7 30.5 5.2 32 6.4 C33.5 5.2 33.8 4.7 33.8 4.1 C33.8 3.1 32.8 2.5 32 3.2 Z"
    fill="#FFFFFF"
  />
</svg>
