<svg xmlns="http://www.w3.org/2000/svg" viewBox="0 0 64 64" role="img" aria-label="TripNestly">
  <!-- Compact mark: home ’ path ’ pin (matches wordmark motif) -->
  <rect width="64" height="64" rx="14" fill="#F7F5F2"/>
  <path
    d="M18 38.5 V28.2 L32 18.5 L46 28.2 V38.5"
    fill="none"
    stroke="#5BA8A3"
    stroke-width="3.2"
    stroke-linecap="round"
    stroke-linejoin="round"
  />
  <path
    d="M24 38.5 H40 V48.5 H24 Z"
    fill="none"
    stroke="#5BA8A3"
    stroke-width="3.2"
    stroke-linecap="round"
    stroke-linejoin="round"
  />
  <path
    d="M22 34 C22 34 28 28 32 24 C36 28 42 34 42 34"
    fill="none"
    stroke="#1F5F5A"
    stroke-width="2.4"
    stroke-linecap="round"
    stroke-dasharray="3.5 3.5"
  />
  <circle cx="20.5" cy="40.5" r="3.2" fill="#E89B8C"/>
  <path
    d="M43.5 22.5 C43.5 19.5 45.9 17.2 48.8 17.2 C51.7 17.2 54.1 19.5 54.1 22.5 C54.1 26.8 48.8 32.2 48.8 32.2 C48.8 32.2 43.5 26.8 43.5 22.5 Z"
    fill="#E89B8C"
  />
  <circle cx="48.8" cy="22.5" r="2.1" fill="#F7F5F2"/>
</svg>
